<svg width="24" height="24" fill="none" xmlns="http://www.w3.org/2000/svg"><path fill-rule="evenodd" clip-rule="evenodd" d="M14.9 3a.9.9 0 1 0-1.8 0v4c0 1.844 1.28 3.39 3 3.796V21a.9.9 0 1 0 1.8 0V10.796c1.72-.407 3-1.952 3-3.796V3a.9.9 0 1 0-1.8 0v4a2.1 2.1 0 0 1-1.2 1.898V3a.9.9 0 1 0-1.8 0v5.898A2.1 2.1 0 0 1 14.9 7V3zm-9.437-.772L5 3c.463-.772.464-.771.464-.771h.002l.002.003.008.004.02.012.06.04c.048.032.115.078.196.138.162.12.383.298.643.541.522.487 1.198 1.234 1.868 2.306C9.608 7.425 10.9 10.842 10.9 16a.9.9 0 0 1-.9.9H5.9V21a.9.9 0 1 1-1.8 0V3a.9.9 0 0 1 1.363-.772z" fill="#828E9F"/></svg>