<svg width="343" height="50" viewBox="0 0 343 50" fill="none" xmlns="http://www.w3.org/2000/svg">
<g clip-path="url(#clip0)">
<g filter="url(#filter0_d)">
<ellipse cx="32.6002" cy="34.4585" rx="6.25278" ry="6.25278" transform="rotate(-120 32.6002 34.4585)" fill="url(#paint0_linear)"/>
</g>
<circle cx="17.1688" cy="19.1687" r="8.60463" transform="rotate(-45 17.1688 19.1687)" fill="#1D6CF7"/>
<path d="M11.1187 25.2874L23.2874 13.1186L37.1082 30.1239L28.2655 38.9666L11.1187 25.2874Z" fill="url(#paint1_linear)"/>
<g clip-path="url(#clip1)">
<path d="M59.1996 32.4626L58.2479 33.6739C58.0749 33.8902 57.772 33.8902 57.599 33.6739C57.2096 33.198 56.6472 32.6356 55.9118 31.9434C55.6522 31.6839 55.2196 31.8569 55.2196 32.2463V37.5674C55.2196 37.7837 55.0466 38 54.787 38H53.0998C52.8835 38 52.6672 37.827 52.6672 37.5674V32.6789C52.6672 32.2895 52.1481 32.1165 51.8885 32.4193C50.8935 33.7604 49.8552 34.8852 48.7737 35.7937C48.6006 35.9667 48.2978 35.9235 48.168 35.7072C47.8652 35.3178 47.5191 34.9285 47.1298 34.5824C46.9135 34.4093 46.9567 34.0632 47.173 33.9334C47.995 33.3278 48.8169 32.5924 49.6389 31.6839C50.4176 30.8186 51.1098 29.9102 51.7154 28.9584C51.8885 28.6556 51.7155 28.3095 51.3694 28.3095H47.8219C47.6056 28.3095 47.3893 28.1364 47.3893 27.8769V26.4925C47.3893 26.2762 47.5624 26.0599 47.8219 26.0599H52.2346C52.4509 26.0599 52.6672 25.8869 52.6672 25.6273V23.8968C52.6672 23.6805 52.4942 23.4642 52.2346 23.4642H47.7354C47.5191 23.4642 47.3028 23.2912 47.3028 23.0316V21.6473C47.3028 21.431 47.4758 21.2146 47.7354 21.2146H49.7687C50.0283 21.2146 50.2446 20.9983 50.2013 20.7388C50.0715 19.9168 49.812 19.0516 49.4226 18.0133C49.3361 17.797 49.4659 17.4942 49.7254 17.4509L51.1531 17.0616H48.1248C47.9085 17.0616 47.6922 16.8885 47.6922 16.629V15.3311C47.6922 15.1148 47.8652 14.8985 48.1248 14.8985H52.2346C52.4509 14.8985 52.6672 14.7255 52.6672 14.4659V12.6489C52.6672 12.4326 52.8402 12.2163 53.0998 12.2163H54.787C55.0033 12.2163 55.2196 12.3894 55.2196 12.6489V14.4659C55.2196 14.6822 55.3927 14.8985 55.6522 14.8985H59.762C59.9783 14.8985 60.1947 15.0715 60.1947 15.3311V16.6722C60.1947 16.8885 60.0216 17.1048 59.762 17.1048H56.777L58.2912 17.4509C58.5507 17.4942 58.6805 17.797 58.594 18.0133C58.1614 19.1381 57.772 20.0033 57.5125 20.6522C57.3827 20.9118 57.599 21.2579 57.9018 21.2579H60.1081C60.3244 21.2579 60.5407 21.431 60.5407 21.6905V23.0749C60.5407 23.2912 60.3677 23.5075 60.1081 23.5075H55.609C55.3927 23.5075 55.1763 23.6805 55.1763 23.9401V25.6706C55.1763 25.8869 55.3494 26.1032 55.609 26.1032H59.762C59.9783 26.1032 60.1947 26.2762 60.1947 26.5358V27.9201C60.1947 28.1364 60.0216 28.3527 59.762 28.3527H55.2196V28.8286C55.5224 29.0449 55.9551 29.391 56.5607 29.8669C57.1664 30.3428 57.772 30.8186 58.4209 31.3378C58.767 31.5973 59.0266 31.8136 59.1996 31.9434C59.3294 31.9867 59.3294 32.2463 59.1996 32.4626ZM55.782 17.0616H51.9318C51.6289 17.0616 51.4126 17.3644 51.5424 17.6672C51.975 18.6622 52.2346 19.5707 52.3644 20.4359C52.4076 20.6522 52.2778 20.8253 52.0615 20.9118L50.7637 21.2579H56.9933L55.5657 20.9118C55.3061 20.8686 55.1763 20.5657 55.2629 20.3494C55.6522 19.3544 55.955 18.4892 56.2146 17.6672C56.2579 17.3211 56.0848 17.0616 55.782 17.0616ZM73.0865 21.8203V23.421C73.0865 23.6373 72.9135 23.8536 72.6539 23.8536H70.5341C70.3178 23.8536 70.1015 24.0266 70.1015 24.2862V37.4809C70.1015 37.6972 69.9284 37.9135 69.6689 37.9135H67.9817C67.7654 37.9135 67.5491 37.7404 67.5491 37.4809V24.2862C67.5491 24.0699 67.376 23.8536 67.1164 23.8536H63.8719V24.1131C63.8719 30.213 62.5308 34.7554 59.8053 37.7404C59.6323 37.9135 59.3294 37.9135 59.1564 37.6972C59.0266 37.5241 58.8536 37.3078 58.594 37.0915C58.3777 36.8752 58.1614 36.6589 57.9451 36.5291C57.7288 36.3993 57.7288 36.0965 57.9018 35.9235C58.5507 35.188 59.1131 34.3661 59.589 33.5008C60.1081 32.4626 60.4975 31.381 60.757 30.2562C61.0166 29.1315 61.1464 28.0932 61.2329 27.1847C61.3194 26.2762 61.3627 25.2379 61.3627 24.0699V14.8552C61.3627 14.5957 61.6223 14.3794 61.8818 14.4659L63.0066 14.7687C63.0932 14.7687 63.1364 14.7687 63.2229 14.7687C66.5108 13.99 68.8902 13.2113 70.361 12.4759C70.5341 12.3894 70.7071 12.4326 70.8369 12.5191C71.183 12.822 71.7887 13.3844 72.2645 13.7737C72.4808 13.99 72.4376 14.3794 72.1348 14.4659C70.2313 15.2446 67.6788 15.98 64.5208 16.629C64.1314 16.7155 63.8286 17.0616 63.8286 17.4942C63.8286 18.3161 63.8286 19.6572 63.8286 20.5225C63.8286 20.9983 64.2179 21.3877 64.6938 21.3877H72.5674C72.8702 21.431 73.0865 21.604 73.0865 21.8203Z" fill="#21262D"/>
<path d="M93.3761 34.6255H103.759C104.018 34.6255 104.191 34.7986 104.191 35.0581V36.6155C104.191 36.8751 104.018 37.0482 103.759 37.0482H79.2729C79.0134 37.0482 78.8403 36.8751 78.8403 36.6155V35.0581C78.8403 34.7986 79.0134 34.6255 79.2729 34.6255H89.7854C90.045 34.6255 90.218 34.4525 90.218 34.1929V32.0299C90.218 31.7703 90.045 31.5972 89.7854 31.5972H82.1714C81.9119 31.5972 81.7388 31.4242 81.7388 31.1646V29.6072C81.7388 29.3477 81.9119 29.1746 82.1714 29.1746H89.7854C90.045 29.1746 90.218 29.0016 90.218 28.742V27.4009C90.218 27.1413 90.045 26.9683 89.7854 26.9683H88.5308C88.2713 26.9683 88.0982 26.7952 88.0982 26.5357V21.6904C88.0982 21.4309 87.9252 21.2578 87.6656 21.2578H85.2863C85.0699 21.2578 84.8969 21.3876 84.8536 21.6039C84.3345 24.1996 83.0367 26.1463 80.9169 27.4874C80.7438 27.6172 80.4843 27.5739 80.3545 27.4009C80.1814 27.2279 80.0084 27.0116 79.7488 26.752C79.5758 26.5789 79.4027 26.4059 79.2729 26.2761C79.0566 26.1031 79.0999 25.757 79.3162 25.6272C80.7871 24.6754 81.7821 23.4209 82.258 21.8635C82.3445 21.6039 82.1282 21.3011 81.8254 21.3011H79.619C79.3595 21.3011 79.1864 21.128 79.1864 20.8685V19.3543C79.1864 19.0947 79.3595 18.9217 79.619 18.9217H82.1714C82.431 18.9217 82.6041 18.7487 82.6041 18.4891V15.8934C82.6041 15.6338 82.431 15.4608 82.1714 15.4608H80.5275C80.268 15.4608 80.0949 15.2878 80.0949 15.0282V13.5573C80.0949 13.2977 80.268 13.1247 80.5275 13.1247H92.3378C92.5974 13.1247 92.7704 13.2977 92.7704 13.5573V15.0282C92.7704 15.2878 92.5974 15.4608 92.3378 15.4608H90.867C90.6074 15.4608 90.4343 15.6338 90.4343 15.8934V18.4891C90.4343 18.7487 90.6074 18.9217 90.867 18.9217H92.9435C93.2031 18.9217 93.3761 19.0947 93.3761 19.3543V20.8252C93.3761 21.0848 93.2031 21.2578 92.9435 21.2578H90.867C90.6074 21.2578 90.4343 21.4309 90.4343 21.6904V26.0598C90.4343 26.3194 90.6074 26.4924 90.867 26.4924H92.3811C92.6407 26.4924 92.8137 26.6655 92.8137 26.925V28.7853C92.8137 29.0448 92.9868 29.2179 93.2463 29.2179H100.687C100.947 29.2179 101.12 29.3909 101.12 29.6505V31.2079C101.12 31.4675 100.947 31.6405 100.687 31.6405H93.2463C92.9868 31.6405 92.8137 31.8136 92.8137 32.0731V34.2362C92.9435 34.4525 93.1165 34.6255 93.3761 34.6255ZM85.5458 18.9217H87.6656C87.9252 18.9217 88.0982 18.7487 88.0982 18.4891V15.8934C88.0982 15.6338 87.9252 15.4608 87.6656 15.4608H85.5458C85.2863 15.4608 85.1132 15.6338 85.1132 15.8934V18.4891C85.1132 18.7487 85.3295 18.9217 85.5458 18.9217ZM97.4427 14.1197V22.6854C97.4427 22.945 97.2696 23.118 97.01 23.118H95.4526C95.1931 23.118 95.02 22.945 95.02 22.6854V14.1197C95.02 13.8601 95.1931 13.6871 95.4526 13.6871H97.01C97.2264 13.6871 97.4427 13.8601 97.4427 14.1197ZM102.245 12.3027C102.504 12.3027 102.677 12.4758 102.677 12.7353V24.5457C102.677 25.2378 102.591 25.757 102.418 26.1031C102.245 26.4924 101.942 26.752 101.466 26.925C100.817 27.1846 99.4759 27.3144 97.5292 27.3576C97.3129 27.3576 97.1398 27.2279 97.0966 27.0116C97.01 26.5357 96.837 26.0598 96.6207 25.5839C96.4909 25.2811 96.7072 24.9783 97.0533 24.9783C98.2646 25.0215 99.0866 25.0215 99.6057 24.9783C99.822 24.9783 99.9951 24.935 100.038 24.8485C100.125 24.762 100.168 24.6322 100.168 24.4591V12.7353C100.168 12.4758 100.341 12.3027 100.601 12.3027H102.245Z" fill="#21262D"/>
<path d="M110.897 18.7487V16.6721C110.897 16.4125 111.07 16.2395 111.329 16.2395H126.081C126.341 16.2395 126.514 16.4125 126.514 16.6721V34.712C126.514 34.9716 126.341 35.1447 126.081 35.1447H111.329C111.07 35.1447 110.897 34.9716 110.897 34.712V32.6355C110.897 32.3759 111.07 32.2029 111.329 32.2029H123.096C123.356 32.2029 123.529 32.0299 123.529 31.7703V19.6571C123.529 19.3976 123.356 19.2245 123.096 19.2245H111.329C111.07 19.1813 110.897 19.0082 110.897 18.7487Z" fill="#21262D"/>
<path d="M151.173 35.1447H135.988C135.729 35.1447 135.556 34.9716 135.556 34.712V16.6721C135.556 16.4125 135.729 16.2395 135.988 16.2395H151.173C151.433 16.2395 151.606 16.4125 151.606 16.6721V34.712C151.606 34.9716 151.433 35.1447 151.173 35.1447ZM148.015 19.2678H139.103C138.844 19.2678 138.67 19.4408 138.67 19.7004V31.727C138.67 31.9866 138.844 32.1596 139.103 32.1596H148.015C148.274 32.1596 148.448 31.9866 148.448 31.727V19.7004C148.448 19.4408 148.274 19.2678 148.015 19.2678Z" fill="#21262D"/>
<path d="M159.652 22.2095V20.0897C159.652 19.8302 159.825 19.6571 160.085 19.6571H167.05C167.31 19.6571 167.483 19.4841 167.483 19.2245V15.158C167.483 14.8984 167.656 14.7253 167.915 14.7253H170.078C170.338 14.7253 170.511 14.8984 170.511 15.158V19.2245C170.511 19.4841 170.684 19.6571 170.944 19.6571H177.13C177.389 19.6571 177.562 19.8302 177.562 20.0897V22.2095C177.562 22.4691 177.389 22.6421 177.13 22.6421H170.944C170.684 22.6421 170.511 22.8152 170.511 23.0748V26.7087C170.468 28.5689 170.035 30.0831 169.3 31.2079C168.564 32.3327 167.656 33.2844 166.661 33.9333C165.666 34.6255 164.627 35.1879 163.589 35.5773C162.767 35.9233 162.032 36.1829 161.296 36.4425C160.993 36.529 160.734 36.356 160.734 36.0531V33.7603C160.734 33.5872 160.864 33.4142 161.037 33.3709C161.599 33.1546 162.205 32.9383 162.81 32.6788C163.546 32.3759 164.325 31.9433 165.103 31.3377C165.925 30.732 166.488 30.0398 166.877 29.1746C167.266 28.3526 167.439 27.2711 167.439 25.9733V23.0315C167.439 22.7719 167.266 22.5989 167.007 22.5989H160.042C159.825 22.6421 159.652 22.4691 159.652 22.2095Z" fill="#21262D"/>
<path d="M184.83 28.4824V18.7486C184.83 18.4891 185.003 18.316 185.263 18.316H190.973C191.233 18.316 191.406 18.143 191.406 17.8834V15.158C191.406 14.8984 191.579 14.7253 191.839 14.7253H193.915C194.175 14.7253 194.348 14.8984 194.348 15.158V17.8834C194.348 18.143 194.521 18.316 194.78 18.316H200.707C200.967 18.316 201.14 18.4891 201.14 18.7486V22.0798C201.097 24.3726 200.75 26.4059 200.145 28.1796C199.539 29.91 198.717 31.2944 197.679 32.2894C196.684 33.2844 195.602 34.0631 194.434 34.6688C193.266 35.2744 192.185 35.7503 191.19 36.0531C190.411 36.3127 189.676 36.4857 189.027 36.5723C188.767 36.6155 188.508 36.3992 188.508 36.1397V34.1064C188.508 33.8901 188.637 33.717 188.854 33.6738C189.805 33.5007 190.757 33.1979 191.666 32.8085C192.704 32.3759 193.742 31.727 194.824 30.8618C195.905 29.9966 196.727 28.8285 197.29 27.4009C197.852 25.9733 198.155 24.1563 198.155 21.95V21.5606C198.155 21.301 197.982 21.128 197.722 21.128H188.205C187.945 21.128 187.772 21.301 187.772 21.5606V28.4392C187.772 28.6987 187.599 28.8718 187.339 28.8718H185.263C185.003 28.915 184.83 28.742 184.83 28.4824Z" fill="#21262D"/>
<path d="M224.501 15.2447C224.847 15.2447 225.02 15.5908 224.89 15.8936C224.414 16.7156 223.765 17.7538 222.9 18.9219C221.862 20.3928 220.824 21.5608 219.829 22.5126C219.742 22.5991 219.699 22.6856 219.699 22.8154V36.2696C219.699 36.5292 219.526 36.7022 219.266 36.7022H217.146C216.887 36.7022 216.714 36.5292 216.714 36.2696V26.06C216.714 25.7139 216.324 25.4976 216.022 25.7139C214.118 27.1415 211.696 28.4394 208.84 29.6507C208.537 29.7805 208.235 29.5641 208.235 29.2613V27.055C208.235 26.8819 208.321 26.7522 208.494 26.6656C210.008 25.9735 211.479 25.238 212.864 24.3728C214.334 23.4643 215.849 22.253 217.449 20.6956C218.963 19.1814 220.348 17.451 221.516 15.4177C221.602 15.2879 221.732 15.2014 221.905 15.2014H224.501V15.2447Z" fill="#21262D"/>
<path d="M232.591 35.5341C232.288 35.5341 232.071 35.2313 232.201 34.9285C232.461 34.2796 232.764 33.5441 233.066 32.6356C233.499 31.4243 233.845 29.9967 234.148 28.3528C234.451 26.7089 234.581 24.8919 234.581 22.9451V16.1964C234.581 15.9368 234.754 15.7638 235.013 15.7638H237.047C237.306 15.7638 237.479 15.9368 237.479 16.1964V22.9451C237.479 25.8004 237.22 28.223 236.83 30.2563C236.441 32.1598 235.922 33.8037 235.316 35.2746C235.23 35.4476 235.1 35.5341 234.927 35.5341H232.591ZM249.246 32.0732C247.083 34.1065 244.531 35.4476 241.675 36.0533C241.416 36.0965 241.156 35.8802 241.156 35.6207V15.8935C241.156 15.634 241.329 15.4609 241.589 15.4609H243.579C243.839 15.4609 244.012 15.634 244.012 15.8935V31.2945C244.012 31.6406 244.358 31.8137 244.66 31.6839C246.045 30.9917 247.386 30.0832 248.684 28.8719C248.943 28.6124 249.419 28.8287 249.419 29.1747V31.7272C249.419 31.8569 249.333 31.9867 249.246 32.0732Z" fill="#21262D"/>
<path d="M290.345 19.6571L292.075 19.9167C292.335 19.96 292.508 20.1763 292.464 20.4358C291.945 23.3776 291.21 25.9733 290.301 28.3094C290.258 28.4392 290.258 28.6122 290.345 28.742C291.469 30.2561 292.378 31.6838 293.07 32.9816C293.157 33.1546 293.113 33.371 292.94 33.5007L291.513 34.712C291.296 34.8851 290.993 34.8418 290.864 34.5823C290.474 33.7603 289.912 32.8518 289.263 31.8568C289.09 31.5972 288.701 31.5972 288.528 31.8568C287.1 34.2362 285.283 36.1829 283.12 37.6971C282.947 37.8269 282.644 37.7836 282.514 37.6106C282.168 37.1347 281.779 36.7021 281.389 36.2695C281.173 36.0531 281.26 35.7503 281.476 35.6205C283.855 34.0631 285.759 31.9433 287.143 29.2611C287.23 29.1314 287.186 28.915 287.1 28.7853C285.716 26.925 284.245 25.1513 282.731 23.4641C282.558 23.2911 282.601 22.9883 282.774 22.8585L283.942 21.9067C284.115 21.7769 284.374 21.7769 284.504 21.95C285.413 22.9017 286.538 24.1996 287.835 25.757C288.052 26.0165 288.484 25.93 288.571 25.5839C289.09 23.9833 289.479 22.1663 289.825 20.1763C289.869 19.7869 290.085 19.6139 290.345 19.6571ZM307.13 18.965V20.6521C307.13 20.9117 306.957 21.0848 306.697 21.0848H304.361C304.102 21.0848 303.929 21.2578 303.929 21.5174V34.5823C303.929 35.361 303.842 35.9666 303.626 36.4425C303.453 36.8751 303.107 37.2212 302.631 37.4375C301.809 37.7836 300.295 37.9566 298.132 37.9999C297.915 37.9999 297.742 37.8701 297.699 37.6538C297.569 37.0482 297.396 36.4425 297.137 35.7936C297.007 35.4908 297.266 35.1879 297.569 35.1879C299.17 35.2312 300.165 35.2312 300.597 35.2312C301.073 35.2312 301.29 35.0149 301.29 34.5823V21.5606C301.29 21.3011 301.117 21.128 300.857 21.128H294.325C294.065 21.128 293.892 20.955 293.892 20.6954V19.4408C293.892 19.1813 293.719 19.0082 293.459 19.0082H282.038C281.779 19.0082 281.606 18.8352 281.606 18.5756V17.0182C281.606 16.7586 281.779 16.5856 282.038 16.5856H286.364C286.624 16.5856 286.797 16.4125 286.797 16.153V12.519C286.797 12.2595 286.97 12.0864 287.23 12.0864H288.917C289.176 12.0864 289.35 12.2595 289.35 12.519V16.153C289.35 16.4125 289.523 16.5856 289.782 16.5856H294.411C294.671 16.5856 294.844 16.7586 294.844 17.0182V18.143C294.844 18.4026 295.017 18.5756 295.276 18.5756H300.944C301.203 18.5756 301.376 18.4026 301.376 18.143V12.519C301.376 12.2595 301.549 12.0864 301.809 12.0864H303.539C303.799 12.0864 303.972 12.2595 303.972 12.519V18.143C303.972 18.4026 304.145 18.5756 304.404 18.5756H306.741C306.957 18.5323 307.13 18.7487 307.13 18.965ZM298.867 29.9966L297.396 30.732C297.137 30.8618 296.877 30.732 296.79 30.4725C296.574 29.737 296.228 28.915 295.795 27.9633C295.32 26.9683 294.8 26.0165 294.238 25.1946C294.108 24.9783 294.195 24.6754 294.411 24.5889L295.795 23.94C295.968 23.8535 296.228 23.8967 296.358 24.0698C297.742 26.1031 298.651 27.92 299.127 29.5207C299.17 29.6937 299.083 29.8668 298.867 29.9966Z" fill="#21262D"/>
<path d="M326.381 26.8818V28.8719C326.381 29.0016 326.424 29.0882 326.511 29.1747C327.722 30.3427 329.323 31.4243 331.313 32.4625C333.173 33.4143 335.163 34.1065 337.283 34.5823C337.586 34.6689 337.716 35.0149 337.543 35.2745C337.153 35.7504 336.807 36.2263 336.504 36.7887C336.418 36.9617 336.201 37.0482 336.028 37.005C334.211 36.5291 332.524 35.8369 330.88 34.9717C329.453 34.193 328.198 33.371 327.073 32.4625C326.814 32.2462 326.381 32.4193 326.381 32.8086V37.6539C326.381 37.8702 326.208 38.0865 325.949 38.0865H324.002C323.785 38.0865 323.569 37.9135 323.569 37.6539V32.6788C323.569 32.3328 323.137 32.1164 322.877 32.3328C320.411 34.4958 317.383 36.0532 313.879 37.0915C313.706 37.1347 313.489 37.0482 313.403 36.8752C313.143 36.3993 312.797 35.9234 312.408 35.4908C312.191 35.2313 312.321 34.8852 312.624 34.7986C314.744 34.2795 316.734 33.5008 318.637 32.5058C320.671 31.4243 322.271 30.213 323.483 28.8286C323.569 28.7421 323.569 28.6555 323.569 28.5258V26.8818C323.569 26.6655 323.396 26.4492 323.137 26.4492H317.686C317.469 26.4492 317.253 26.6223 317.253 26.8818V31.2512C317.253 31.4675 317.08 31.6838 316.82 31.6838H314.874C314.657 31.6838 314.441 31.5108 314.441 31.2512V24.6755C314.441 24.4592 314.614 24.2429 314.874 24.2429H323.093C323.31 24.2429 323.526 24.0699 323.526 23.8103V22.8153C323.526 22.599 323.353 22.3827 323.093 22.3827H313.057C312.84 22.3827 312.624 22.2096 312.624 21.9501V20.5224C312.624 20.3061 312.797 20.0898 313.057 20.0898H323.18C323.396 20.0898 323.612 19.9168 323.612 19.6572V18.965C323.612 18.8352 323.526 18.6622 323.396 18.6189C323.31 18.5757 323.18 18.4892 323.05 18.4026C322.834 18.2729 322.704 18.1863 322.661 18.1431C323.007 17.8402 323.31 17.5807 323.569 17.3211C323.829 17.0615 323.656 16.5857 323.266 16.5857H320.627C320.325 16.5857 320.108 16.9318 320.238 17.2346C320.498 17.7537 320.714 18.1863 320.887 18.5324C320.973 18.7487 320.844 19.0083 320.627 19.0948L319.113 19.614C318.897 19.7005 318.637 19.5707 318.551 19.3544C318.248 18.4892 317.859 17.6239 317.383 16.802C317.296 16.6722 317.166 16.5857 316.993 16.5857H316.518C316.388 16.5857 316.258 16.6722 316.171 16.7587C315.393 17.8402 314.657 18.7055 314.052 19.3544C313.879 19.5274 313.662 19.5274 313.489 19.3976C313.1 19.0948 312.667 18.792 312.105 18.4459C311.845 18.3161 311.802 17.97 312.018 17.7537C313.619 16.2396 314.874 14.3793 315.825 12.173C315.912 12 316.128 11.8702 316.301 11.9135L317.988 12.3461C318.248 12.3893 318.378 12.6922 318.291 12.9085C318.205 13.1248 318.075 13.3843 317.945 13.6439C317.815 13.9467 318.032 14.2496 318.335 14.2496H323.958C324.175 14.2496 324.391 14.4226 324.391 14.6822V15.1148C324.391 15.5041 324.91 15.7204 325.17 15.3743C325.905 14.3361 326.468 13.2545 326.9 12.1298C326.987 11.9135 327.16 11.8269 327.376 11.8702L329.107 12.2595C329.366 12.3028 329.496 12.6056 329.409 12.8219C329.323 13.0382 329.193 13.3411 329.063 13.6439C328.934 13.9467 329.15 14.2496 329.453 14.2496H336.894C337.11 14.2496 337.326 14.4226 337.326 14.6822V16.0665C337.326 16.2828 337.153 16.4991 336.894 16.4991H332.741C332.438 16.4991 332.221 16.8452 332.351 17.1481C332.654 17.6672 332.87 18.0998 333 18.4026C333.13 18.6189 333 18.9218 332.741 18.965L331.226 19.4409C331.01 19.5274 330.794 19.3976 330.707 19.1813C330.404 18.4459 330.015 17.6239 329.409 16.7154C329.323 16.5857 329.193 16.4991 329.063 16.4991H327.679C327.549 16.4991 327.419 16.5857 327.333 16.7154C327.03 17.1913 326.597 17.7105 326.122 18.3161H326.381V19.5707C326.381 19.787 326.554 20.0033 326.814 20.0033H336.461C336.677 20.0033 336.894 20.1763 336.894 20.4359V21.8635C336.894 22.0798 336.721 22.2961 336.461 22.2961H326.814C326.597 22.2961 326.381 22.4692 326.381 22.7288V23.7238C326.381 23.9401 326.554 24.1564 326.814 24.1564H334.947C335.163 24.1564 335.379 24.3294 335.379 24.589V29.1314C335.379 29.7371 335.293 30.213 335.163 30.5158C334.99 30.8186 334.731 31.0349 334.298 31.208C333.692 31.4243 332.611 31.5541 331.01 31.5541C330.837 31.5541 330.664 31.4675 330.621 31.2945C330.534 31.0349 330.361 30.6456 330.102 30.1264C329.972 29.8236 330.188 29.5208 330.491 29.5208C331.313 29.564 331.875 29.564 332.221 29.5208C332.524 29.5208 332.697 29.391 332.697 29.1314V26.8386C332.697 26.6223 332.524 26.406 332.265 26.406H326.814C326.597 26.4925 326.381 26.6655 326.381 26.8818Z" fill="#21262D"/>
<path d="M257.509 17.9267V15.7204C257.509 15.5041 257.682 15.3311 257.899 15.3311H271.612C271.872 15.3311 272.045 15.5474 272.002 15.8069C271.699 17.2345 271.18 18.792 270.488 20.4359C269.752 22.1663 268.844 23.8103 267.892 25.3677C267.805 25.4974 267.805 25.6705 267.892 25.8003C268.8 27.0548 269.666 28.1364 270.444 29.0016C271.266 29.9101 272.175 30.7753 273.213 31.6838C273.3 31.7703 273.343 31.8568 273.343 31.9866V34.7986C273.343 35.1447 272.953 35.3177 272.694 35.1014C272.434 34.8851 272.088 34.6256 271.699 34.2795C270.877 33.6306 270.012 32.8086 269.103 31.8568C268.238 30.9916 267.286 29.8236 266.205 28.3527C266.032 28.1364 265.729 28.1364 265.599 28.3527C264.301 29.9534 263.09 31.2079 262.052 32.1164C260.884 33.1114 259.845 33.9334 258.85 34.539C258.158 34.9717 257.552 35.3177 257.077 35.5773C256.817 35.7071 256.514 35.534 256.514 35.2312V32.7221C256.514 32.5923 256.601 32.4625 256.687 32.376C258.072 31.554 259.369 30.559 260.624 29.391C261.965 28.1796 263.306 26.6222 264.647 24.8053C265.902 23.1181 266.983 21.0848 267.849 18.7487C267.935 18.4891 267.762 18.2296 267.503 18.2296H257.899C257.682 18.3161 257.509 18.143 257.509 17.9267Z" fill="#21262D"/>
</g>
</g>
<defs>
<filter id="filter0_d" x="6.34644" y="8.20483" width="52.5076" height="52.5076" filterUnits="userSpaceOnUse" color-interpolation-filters="sRGB">
<feFlood flood-opacity="0" result="BackgroundImageFix"/>
<feColorMatrix in="SourceAlpha" type="matrix" values="0 0 0 0 0 0 0 0 0 0 0 0 0 0 0 0 0 0 127 0"/>
<feOffset/>
<feGaussianBlur stdDeviation="10"/>
<feColorMatrix type="matrix" values="0 0 0 0 1 0 0 0 0 1 0 0 0 0 1 0 0 0 1 0"/>
<feBlend mode="normal" in2="BackgroundImageFix" result="effect1_dropShadow"/>
<feBlend mode="normal" in="SourceGraphic" in2="effect1_dropShadow" result="shape"/>
</filter>
<linearGradient id="paint0_linear" x1="32.6002" y1="28.2058" x2="26.3474" y2="40.7113" gradientUnits="userSpaceOnUse">
<stop offset="0.104167" stop-color="#1D6CF7"/>
<stop offset="1" stop-color="#1DF7F7"/>
</linearGradient>
<linearGradient id="paint1_linear" x1="17.203" y1="19.203" x2="32.9047" y2="34.9046" gradientUnits="userSpaceOnUse">
<stop stop-color="#1D6CF7"/>
<stop offset="1" stop-color="#1D6CF7" stop-opacity="0"/>
</linearGradient>
<clipPath id="clip0">
<path d="M0 0H342.017V50H0V0Z" fill="white"/>
</clipPath>
<clipPath id="clip1">
<rect x="47" y="12" width="290.586" height="26" fill="white"/>
</clipPath>
</defs>
</svg>
