<svg width="248" height="36" viewBox="0 0 248 36" fill="none" xmlns="http://www.w3.org/2000/svg">
<g clip-path="url(#clip0)">
<ellipse cx="22.4451" cy="25.1407" rx="4.63177" ry="4.63176" transform="rotate(-120 22.4451 25.1407)" fill="white"/>
<circle cx="11.0141" cy="13.8149" r="6.3739" transform="rotate(-45 11.0141 13.8149)" fill="white"/>
<path d="M6.53247 18.3472L15.5465 9.3331L25.7843 21.9298L19.234 28.4801L6.53247 18.3472Z" fill="url(#paint0_linear)"/>
<g clip-path="url(#clip1)">
<path d="M42.0371 23.158L41.332 24.0553C41.2039 24.2155 40.9795 24.2155 40.8513 24.0553C40.5629 23.7028 40.1463 23.2861 39.6015 22.7734C39.4092 22.5811 39.0888 22.7093 39.0888 22.9977V26.9395C39.0888 27.0997 38.9606 27.2599 38.7683 27.2599H37.5185C37.3583 27.2599 37.198 27.1317 37.198 26.9395V23.3182C37.198 23.0298 36.8135 22.9016 36.6212 23.1259C35.8841 24.1194 35.115 24.9526 34.3138 25.6255C34.1857 25.7537 33.9613 25.7217 33.8652 25.5615C33.6409 25.273 33.3845 24.9846 33.0961 24.7282C32.9358 24.6001 32.9679 24.3437 33.1281 24.2475C33.737 23.7989 34.3459 23.2541 34.9548 22.5811C35.5316 21.9402 36.0444 21.2672 36.493 20.5622C36.6212 20.3379 36.493 20.0815 36.2366 20.0815H33.6088C33.4486 20.0815 33.2883 19.9533 33.2883 19.761V18.7355C33.2883 18.5753 33.4165 18.4151 33.6088 18.4151H36.8776C37.0378 18.4151 37.198 18.2869 37.198 18.0946V16.8127C37.198 16.6525 37.0698 16.4923 36.8776 16.4923H33.5447C33.3845 16.4923 33.2243 16.3641 33.2243 16.1718V15.1463C33.2243 14.9861 33.3524 14.8258 33.5447 14.8258H35.0509C35.2432 14.8258 35.4034 14.6656 35.3714 14.4733C35.2752 13.8644 35.083 13.2235 34.7945 12.4544C34.7304 12.2942 34.8266 12.0698 35.0189 12.0378L36.0764 11.7494H33.8331C33.6729 11.7494 33.5127 11.6212 33.5127 11.4289V10.4675C33.5127 10.3073 33.6409 10.147 33.8331 10.147H36.8776C37.0378 10.147 37.198 10.0189 37.198 9.82658V8.48062C37.198 8.32039 37.3262 8.16016 37.5185 8.16016H38.7683C38.9285 8.16016 39.0888 8.28834 39.0888 8.48062V9.82658C39.0888 9.98681 39.217 10.147 39.4092 10.147H42.4537C42.6139 10.147 42.7741 10.2752 42.7741 10.4675V11.461C42.7741 11.6212 42.646 11.7814 42.4537 11.7814H40.2425L41.3641 12.0378C41.5564 12.0698 41.6525 12.2942 41.5884 12.4544C41.2679 13.2876 40.9795 13.9285 40.7872 14.4092C40.6911 14.6015 40.8513 14.8579 41.0757 14.8579H42.71C42.8703 14.8579 43.0305 14.9861 43.0305 15.1784V16.2039C43.0305 16.3641 42.9023 16.5243 42.71 16.5243H39.3772C39.217 16.5243 39.0567 16.6525 39.0567 16.8448V18.1266C39.0567 18.2869 39.1849 18.4471 39.3772 18.4471H42.4537C42.6139 18.4471 42.7741 18.5753 42.7741 18.7676V19.7931C42.7741 19.9533 42.646 20.1135 42.4537 20.1135H39.0888V20.466C39.3131 20.6263 39.6336 20.8827 40.0822 21.2352C40.5309 21.5877 40.9795 21.9402 41.4602 22.3247C41.7166 22.517 41.9089 22.6773 42.0371 22.7734C42.1332 22.8054 42.1332 22.9977 42.0371 23.158ZM39.5054 11.7494H36.6532C36.4289 11.7494 36.2687 11.9737 36.3648 12.198C36.6853 12.9351 36.8776 13.6081 36.9737 14.249C37.0058 14.4092 36.9096 14.5374 36.7494 14.6015L35.788 14.8579H40.4027L39.3452 14.6015C39.1529 14.5695 39.0567 14.3451 39.1208 14.1849C39.4092 13.4478 39.6336 12.8069 39.8259 12.198C39.8579 11.9417 39.7297 11.7494 39.5054 11.7494ZM52.324 15.2745V16.4602C52.324 16.6205 52.1958 16.7807 52.0036 16.7807H50.4333C50.273 16.7807 50.1128 16.9089 50.1128 17.1012V26.8754C50.1128 27.0356 49.9846 27.1958 49.7923 27.1958H48.5425C48.3823 27.1958 48.2221 27.0676 48.2221 26.8754V17.1012C48.2221 16.9409 48.0939 16.7807 47.9016 16.7807H45.4981V16.973C45.4981 21.4915 44.5047 24.8564 42.4857 27.0676C42.3575 27.1958 42.1332 27.1958 42.005 27.0356C41.9089 26.9074 41.7807 26.7472 41.5884 26.5869C41.4282 26.4267 41.2679 26.2665 41.1077 26.1703C40.9475 26.0742 40.9475 25.8499 41.0757 25.7217C41.5564 25.1769 41.973 24.568 42.3255 23.9271C42.71 23.158 42.9985 22.3568 43.1907 21.5236C43.383 20.6904 43.4792 19.9213 43.5433 19.2483C43.6073 18.5753 43.6394 17.8062 43.6394 16.9409V10.115C43.6394 9.92272 43.8317 9.76249 44.024 9.82658L44.8572 10.0509C44.9213 10.0509 44.9533 10.0509 45.0174 10.0509C47.4529 9.47407 49.2155 8.89723 50.3051 8.35244C50.4333 8.28834 50.5615 8.32039 50.6576 8.38448C50.914 8.60881 51.3626 9.02541 51.7151 9.31383C51.8754 9.47407 51.8433 9.76249 51.619 9.82658C50.2089 10.4034 48.3182 10.9482 45.9788 11.4289C45.6904 11.493 45.4661 11.7494 45.4661 12.0698C45.4661 12.6787 45.4661 13.6722 45.4661 14.3131C45.4661 14.6656 45.7545 14.954 46.107 14.954H51.9395C52.1638 14.9861 52.324 15.1143 52.324 15.2745Z" fill="white"/>
<path d="M67.3538 24.7602H75.045C75.2373 24.7602 75.3655 24.8883 75.3655 25.0806V26.2343C75.3655 26.4266 75.2373 26.5548 75.045 26.5548H56.9066C56.7144 26.5548 56.5862 26.4266 56.5862 26.2343V25.0806C56.5862 24.8883 56.7144 24.7602 56.9066 24.7602H64.694C64.8862 24.7602 65.0144 24.632 65.0144 24.4397V22.8374C65.0144 22.6451 64.8862 22.5169 64.694 22.5169H59.0538C58.8615 22.5169 58.7333 22.3887 58.7333 22.1964V21.0428C58.7333 20.8505 58.8615 20.7223 59.0538 20.7223H64.694C64.8862 20.7223 65.0144 20.5941 65.0144 20.4018V19.4084C65.0144 19.2161 64.8862 19.0879 64.694 19.0879H63.7646C63.5723 19.0879 63.4442 18.9597 63.4442 18.7674V15.1782C63.4442 14.986 63.316 14.8578 63.1237 14.8578H61.3611C61.2009 14.8578 61.0727 14.9539 61.0407 15.1141C60.6561 17.0369 59.6947 18.479 58.1244 19.4725C57.9962 19.5686 57.804 19.5366 57.7078 19.4084C57.5796 19.2802 57.4514 19.12 57.2592 18.9277C57.131 18.7995 57.0028 18.6713 56.9066 18.5752C56.7464 18.447 56.7785 18.1906 56.9387 18.0945C58.0283 17.3894 58.7654 16.4601 59.1179 15.3064C59.182 15.1141 59.0217 14.8898 58.7974 14.8898H57.163C56.9707 14.8898 56.8426 14.7616 56.8426 14.5693V13.4477C56.8426 13.2554 56.9707 13.1272 57.163 13.1272H59.0538C59.246 13.1272 59.3742 12.9991 59.3742 12.8068V10.884C59.3742 10.6917 59.246 10.5635 59.0538 10.5635H57.836C57.6437 10.5635 57.5155 10.4353 57.5155 10.2431V9.15347C57.5155 8.96119 57.6437 8.83301 57.836 8.83301H66.5847C66.777 8.83301 66.9052 8.96119 66.9052 9.15347V10.2431C66.9052 10.4353 66.777 10.5635 66.5847 10.5635H65.4951C65.3029 10.5635 65.1747 10.6917 65.1747 10.884V12.8068C65.1747 12.9991 65.3029 13.1272 65.4951 13.1272H67.0334C67.2256 13.1272 67.3538 13.2554 67.3538 13.4477V14.5373C67.3538 14.7296 67.2256 14.8578 67.0334 14.8578H65.4951C65.3029 14.8578 65.1747 14.986 65.1747 15.1782V18.4149C65.1747 18.6072 65.3029 18.7354 65.4951 18.7354H66.6168C66.809 18.7354 66.9372 18.8636 66.9372 19.0559V20.4339C66.9372 20.6262 67.0654 20.7543 67.2577 20.7543H72.7697C72.962 20.7543 73.0902 20.8825 73.0902 21.0748V22.2285C73.0902 22.4208 72.962 22.5489 72.7697 22.5489H67.2577C67.0654 22.5489 66.9372 22.6771 66.9372 22.8694V24.4717C67.0334 24.632 67.1616 24.7602 67.3538 24.7602ZM61.5534 13.1272H63.1237C63.316 13.1272 63.4442 12.9991 63.4442 12.8068V10.884C63.4442 10.6917 63.316 10.5635 63.1237 10.5635H61.5534C61.3611 10.5635 61.2329 10.6917 61.2329 10.884V12.8068C61.2329 12.9991 61.3932 13.1272 61.5534 13.1272ZM70.3662 9.57008V15.9153C70.3662 16.1076 70.238 16.2358 70.0457 16.2358H68.8921C68.6998 16.2358 68.5716 16.1076 68.5716 15.9153V9.57008C68.5716 9.3778 68.6998 9.24961 68.8921 9.24961H70.0457C70.206 9.24961 70.3662 9.3778 70.3662 9.57008ZM73.9234 8.22412C74.1157 8.22412 74.2439 8.35231 74.2439 8.54459V17.2933C74.2439 17.8061 74.1798 18.1906 74.0516 18.447C73.9234 18.7354 73.6991 18.9277 73.3465 19.0559C72.8658 19.2481 71.8724 19.3443 70.4303 19.3763C70.2701 19.3763 70.1419 19.2802 70.1098 19.12C70.0457 18.7675 69.9176 18.4149 69.7573 18.0624C69.6612 17.8381 69.8214 17.6138 70.0778 17.6138C70.9751 17.6458 71.584 17.6458 71.9685 17.6138C72.1288 17.6138 72.257 17.5817 72.289 17.5176C72.3531 17.4535 72.3851 17.3574 72.3851 17.2292V8.54459C72.3851 8.35231 72.5133 8.22412 72.7056 8.22412H73.9234Z" fill="white"/>
<path d="M80.3328 12.9993V11.4611C80.3328 11.2688 80.4609 11.1406 80.6532 11.1406H91.5811C91.7734 11.1406 91.9016 11.2688 91.9016 11.4611V24.8245C91.9016 25.0168 91.7734 25.145 91.5811 25.145H80.6532C80.4609 25.145 80.3328 25.0168 80.3328 24.8245V23.2863C80.3328 23.094 80.4609 22.9658 80.6532 22.9658H89.3699C89.5622 22.9658 89.6904 22.8376 89.6904 22.6454V13.6723C89.6904 13.48 89.5622 13.3518 89.3699 13.3518H80.6532C80.4609 13.3198 80.3328 13.1916 80.3328 12.9993Z" fill="white"/>
<path d="M110.168 25.145H98.9198C98.7276 25.145 98.5994 25.0168 98.5994 24.8245V11.4611C98.5994 11.2688 98.7276 11.1406 98.9198 11.1406H110.168C110.36 11.1406 110.489 11.2688 110.489 11.4611V24.8245C110.489 25.0168 110.36 25.145 110.168 25.145ZM107.829 13.3839H101.227C101.035 13.3839 100.907 13.5121 100.907 13.7044V22.6133C100.907 22.8056 101.035 22.9338 101.227 22.9338H107.829C108.021 22.9338 108.149 22.8056 108.149 22.6133V13.7044C108.149 13.5121 108.021 13.3839 107.829 13.3839Z" fill="white"/>
<path d="M116.449 15.5631V13.9928C116.449 13.8005 116.577 13.6724 116.77 13.6724H121.929C122.121 13.6724 122.25 13.5442 122.25 13.3519V10.3395C122.25 10.1472 122.378 10.019 122.57 10.019H124.172C124.365 10.019 124.493 10.1472 124.493 10.3395V13.3519C124.493 13.5442 124.621 13.6724 124.813 13.6724H129.396C129.588 13.6724 129.717 13.8005 129.717 13.9928V15.5631C129.717 15.7554 129.588 15.8836 129.396 15.8836H124.813C124.621 15.8836 124.493 16.0118 124.493 16.204V18.8959C124.461 20.274 124.14 21.3956 123.596 22.2288C123.051 23.062 122.378 23.767 121.641 24.2477C120.904 24.7605 120.135 25.1771 119.365 25.4655C118.757 25.7219 118.212 25.9142 117.667 26.1064C117.443 26.1705 117.25 26.0423 117.25 25.818V24.1195C117.25 23.9914 117.347 23.8632 117.475 23.8311C117.891 23.6709 118.34 23.5107 118.789 23.3184C119.333 23.0941 119.91 22.7736 120.487 22.3249C121.096 21.8763 121.513 21.3635 121.801 20.7226C122.089 20.1137 122.218 19.3126 122.218 18.3512V16.172C122.218 15.9797 122.089 15.8515 121.897 15.8515H116.738C116.577 15.8836 116.449 15.7554 116.449 15.5631Z" fill="white"/>
<path d="M135.1 20.2099V12.9994C135.1 12.8071 135.229 12.6789 135.421 12.6789H139.651C139.843 12.6789 139.971 12.5507 139.971 12.3584V10.3395C139.971 10.1472 140.1 10.019 140.292 10.019H141.83C142.022 10.019 142.151 10.1472 142.151 10.3395V12.3584C142.151 12.5507 142.279 12.6789 142.471 12.6789H146.861C147.054 12.6789 147.182 12.8071 147.182 12.9994V15.467C147.15 17.1654 146.893 18.6716 146.445 19.9855C145.996 21.2674 145.387 22.2929 144.618 23.03C143.881 23.767 143.08 24.3439 142.215 24.7925C141.349 25.2412 140.548 25.5937 139.811 25.818C139.234 26.0103 138.69 26.1385 138.209 26.2026C138.017 26.2346 137.824 26.0744 137.824 25.8821V24.3759C137.824 24.2157 137.92 24.0875 138.081 24.0555C138.786 23.9273 139.491 23.7029 140.164 23.4145C140.933 23.0941 141.702 22.6134 142.503 21.9724C143.304 21.3315 143.913 20.4662 144.33 19.4087C144.746 18.3512 144.971 17.0052 144.971 15.3708V15.0824C144.971 14.8901 144.843 14.7619 144.65 14.7619H137.6C137.408 14.7619 137.28 14.8901 137.28 15.0824V20.1778C137.28 20.3701 137.151 20.4983 136.959 20.4983H135.421C135.229 20.5303 135.1 20.4021 135.1 20.2099Z" fill="white"/>
<path d="M164.487 10.4036C164.744 10.4036 164.872 10.66 164.776 10.8843C164.423 11.4932 163.942 12.2623 163.302 13.1276C162.532 14.2172 161.763 15.0824 161.026 15.7875C160.962 15.8515 160.93 15.9156 160.93 16.0118V25.9783C160.93 26.1705 160.802 26.2987 160.61 26.2987H159.039C158.847 26.2987 158.719 26.1705 158.719 25.9783V18.4153C158.719 18.1589 158.43 17.9987 158.206 18.1589C156.796 19.2164 155.001 20.1778 152.886 21.0751C152.662 21.1713 152.438 21.011 152.438 20.7867V19.1523C152.438 19.0242 152.502 18.928 152.63 18.8639C153.752 18.3512 154.841 17.8064 155.867 17.1655C156.956 16.4925 158.078 15.5952 159.264 14.4415C160.385 13.3199 161.411 12.038 162.276 10.5318C162.34 10.4357 162.436 10.3716 162.564 10.3716H164.487V10.4036Z" fill="white"/>
<path d="M170.48 25.4336C170.256 25.4336 170.095 25.2093 170.192 24.9849C170.384 24.5042 170.608 23.9594 170.832 23.2865C171.153 22.3892 171.409 21.3316 171.634 20.1138C171.858 18.8961 171.954 17.5501 171.954 16.108V11.1088C171.954 10.9165 172.082 10.7883 172.275 10.7883H173.781C173.973 10.7883 174.101 10.9165 174.101 11.1088V16.108C174.101 18.2231 173.909 20.0177 173.621 21.5239C173.332 22.9339 172.948 24.1517 172.499 25.2413C172.435 25.3695 172.339 25.4336 172.21 25.4336H170.48ZM182.818 22.8699C181.216 24.376 179.325 25.3695 177.21 25.8181C177.017 25.8502 176.825 25.69 176.825 25.4977V10.8844C176.825 10.6922 176.953 10.564 177.146 10.564H178.62C178.812 10.564 178.94 10.6922 178.94 10.8844V22.293C178.94 22.5494 179.197 22.6776 179.421 22.5814C180.446 22.0687 181.44 21.3957 182.401 20.4984C182.594 20.3061 182.946 20.4664 182.946 20.7227V22.6135C182.946 22.7096 182.882 22.8058 182.818 22.8699Z" fill="white"/>
<path d="M213.262 13.6721L214.544 13.8644C214.736 13.8964 214.864 14.0567 214.832 14.249C214.448 16.4281 213.903 18.3509 213.23 20.0814C213.198 20.1776 213.198 20.3058 213.262 20.4019C214.095 21.5235 214.768 22.5811 215.281 23.5425C215.345 23.6707 215.313 23.8309 215.185 23.927L214.127 24.8243C213.967 24.9525 213.743 24.9205 213.647 24.7282C213.358 24.1193 212.942 23.4463 212.461 22.7093C212.333 22.517 212.044 22.517 211.916 22.7093C210.859 24.4718 209.513 25.9139 207.91 27.0355C207.782 27.1317 207.558 27.0996 207.462 26.9715C207.205 26.6189 206.917 26.2985 206.628 25.978C206.468 25.8178 206.532 25.5934 206.693 25.4973C208.455 24.3436 209.865 22.7733 210.891 20.7865C210.955 20.6903 210.923 20.5301 210.859 20.4339C209.833 19.0559 208.744 17.742 207.622 16.4922C207.494 16.364 207.526 16.1397 207.654 16.0436L208.519 15.3385C208.647 15.2424 208.84 15.2424 208.936 15.3706C209.609 16.0756 210.442 17.037 211.403 18.1907C211.564 18.383 211.884 18.3189 211.948 18.0625C212.333 16.8768 212.621 15.5308 212.878 14.0567C212.91 13.7683 213.07 13.6401 213.262 13.6721ZM225.696 13.1594V14.4092C225.696 14.6015 225.568 14.7297 225.376 14.7297H223.645C223.453 14.7297 223.325 14.8578 223.325 15.0501V24.7282C223.325 25.305 223.261 25.7537 223.1 26.1062C222.972 26.4267 222.716 26.683 222.363 26.8433C221.754 27.0996 220.633 27.2278 219.03 27.2599C218.87 27.2599 218.742 27.1637 218.71 27.0035C218.614 26.5548 218.486 26.1062 218.293 25.6255C218.197 25.4012 218.39 25.1768 218.614 25.1768C219.8 25.2089 220.537 25.2089 220.857 25.2089C221.21 25.2089 221.37 25.0487 221.37 24.7282V15.0822C221.37 14.8899 221.242 14.7617 221.049 14.7617H216.21C216.018 14.7617 215.89 14.6335 215.89 14.4412V13.5119C215.89 13.3196 215.762 13.1914 215.569 13.1914H207.109C206.917 13.1914 206.789 13.0632 206.789 12.871V11.7173C206.789 11.525 206.917 11.3968 207.109 11.3968H210.314C210.506 11.3968 210.634 11.2686 210.634 11.0763V8.38443C210.634 8.19215 210.762 8.06396 210.955 8.06396H212.205C212.397 8.06396 212.525 8.19215 212.525 8.38443V11.0763C212.525 11.2686 212.653 11.3968 212.846 11.3968H216.274C216.467 11.3968 216.595 11.525 216.595 11.7173V12.5505C216.595 12.7428 216.723 12.871 216.915 12.871H221.114C221.306 12.871 221.434 12.7428 221.434 12.5505V8.38443C221.434 8.19215 221.562 8.06396 221.754 8.06396H223.036C223.229 8.06396 223.357 8.19215 223.357 8.38443V12.5505C223.357 12.7428 223.485 12.871 223.677 12.871H225.408C225.568 12.8389 225.696 12.9991 225.696 13.1594ZM219.575 21.3313L218.486 21.876C218.293 21.9722 218.101 21.876 218.037 21.6838C217.877 21.139 217.62 20.5301 217.3 19.8251C216.947 19.088 216.563 18.383 216.146 17.7741C216.05 17.6138 216.114 17.3895 216.274 17.3254L217.3 16.8447C217.428 16.7806 217.62 16.8127 217.717 16.9409C218.742 18.4471 219.415 19.793 219.768 20.9787C219.8 21.1069 219.736 21.2351 219.575 21.3313Z" fill="white"/>
<path d="M239.957 19.0242V20.4983C239.957 20.5945 239.989 20.6586 240.053 20.7226C240.95 21.5879 242.136 22.3891 243.61 23.1582C244.988 23.8632 246.462 24.376 248.033 24.7285C248.257 24.7926 248.353 25.0489 248.225 25.2412C247.937 25.5937 247.68 25.9462 247.456 26.3628C247.392 26.491 247.231 26.5551 247.103 26.5231C245.757 26.1706 244.508 25.6578 243.29 25.0169C242.232 24.44 241.303 23.8312 240.47 23.1582C240.277 22.998 239.957 23.1261 239.957 23.4146V27.0038C239.957 27.164 239.829 27.3242 239.636 27.3242H238.194C238.034 27.3242 237.874 27.1961 237.874 27.0038V23.3184C237.874 23.062 237.553 22.9018 237.361 23.062C235.534 24.6644 233.291 25.8181 230.695 26.5872C230.567 26.6192 230.407 26.5551 230.343 26.4269C230.151 26.0744 229.894 25.7219 229.606 25.4014C229.446 25.2092 229.542 24.9528 229.766 24.8887C231.336 24.5041 232.811 23.9273 234.221 23.1902C235.727 22.3891 236.912 21.4918 237.81 20.4663C237.874 20.4022 237.874 20.3381 237.874 20.2419V19.0242C237.874 18.8639 237.746 18.7037 237.553 18.7037H233.516C233.355 18.7037 233.195 18.8319 233.195 19.0242V22.2609C233.195 22.4211 233.067 22.5813 232.875 22.5813H231.433C231.272 22.5813 231.112 22.4532 231.112 22.2609V17.3898C231.112 17.2296 231.24 17.0693 231.433 17.0693H237.521C237.682 17.0693 237.842 16.9411 237.842 16.7489V16.0118C237.842 15.8516 237.714 15.6913 237.521 15.6913H230.087C229.926 15.6913 229.766 15.5631 229.766 15.3709V14.3133C229.766 14.1531 229.894 13.9929 230.087 13.9929H237.585C237.746 13.9929 237.906 13.8647 237.906 13.6724V13.1596C237.906 13.0635 237.842 12.9353 237.746 12.9033C237.682 12.8712 237.585 12.8071 237.489 12.743C237.329 12.6469 237.233 12.5828 237.201 12.5508C237.457 12.3264 237.682 12.1342 237.874 11.9419C238.066 11.7496 237.938 11.3971 237.65 11.3971H235.695C235.47 11.3971 235.31 11.6535 235.406 11.8778C235.599 12.2623 235.759 12.5828 235.887 12.8392C235.951 12.9994 235.855 13.1917 235.695 13.2558L234.573 13.6403C234.413 13.7044 234.221 13.6083 234.156 13.4481C233.932 12.8071 233.644 12.1662 233.291 11.5573C233.227 11.4612 233.131 11.3971 233.003 11.3971H232.65C232.554 11.3971 232.458 11.4612 232.394 11.5253C231.817 12.3264 231.272 12.9674 230.824 13.4481C230.695 13.5763 230.535 13.5763 230.407 13.4801C230.119 13.2558 229.798 13.0315 229.382 12.7751C229.189 12.6789 229.157 12.4226 229.317 12.2623C230.503 11.1407 231.433 9.76271 232.138 8.12833C232.202 8.00015 232.362 7.90401 232.49 7.93605L233.74 8.25652C233.932 8.28857 234.028 8.51289 233.964 8.67313C233.9 8.83336 233.804 9.02564 233.708 9.21792C233.612 9.44224 233.772 9.66657 233.996 9.66657H238.162C238.323 9.66657 238.483 9.79476 238.483 9.98704V10.3075C238.483 10.5959 238.867 10.7562 239.06 10.4998C239.604 9.73066 240.021 8.9295 240.341 8.09629C240.406 7.93605 240.534 7.87196 240.694 7.90401L241.976 8.19243C242.168 8.22447 242.264 8.4488 242.2 8.60903C242.136 8.76927 242.04 8.99359 241.944 9.21792C241.848 9.44224 242.008 9.66657 242.232 9.66657H247.744C247.904 9.66657 248.065 9.79476 248.065 9.98704V11.0125C248.065 11.1728 247.937 11.333 247.744 11.333H244.668C244.443 11.333 244.283 11.5894 244.379 11.8137C244.604 12.1983 244.764 12.5187 244.86 12.743C244.956 12.9033 244.86 13.1276 244.668 13.1596L243.546 13.5122C243.386 13.5763 243.226 13.4801 243.162 13.3199C242.937 12.7751 242.649 12.1662 242.2 11.4932C242.136 11.3971 242.04 11.333 241.944 11.333H240.918C240.822 11.333 240.726 11.3971 240.662 11.4932C240.438 11.8457 240.117 12.2303 239.765 12.6789H239.957V13.6083C239.957 13.7685 240.085 13.9288 240.277 13.9288H247.424C247.584 13.9288 247.744 14.057 247.744 14.2492V15.3068C247.744 15.467 247.616 15.6272 247.424 15.6272H240.277C240.117 15.6272 239.957 15.7554 239.957 15.9477V16.6848C239.957 16.845 240.085 17.0052 240.277 17.0052H246.302C246.462 17.0052 246.623 17.1334 246.623 17.3257V20.6906C246.623 21.1392 246.559 21.4918 246.462 21.7161C246.334 21.9404 246.142 22.1006 245.821 22.2288C245.373 22.3891 244.572 22.4852 243.386 22.4852C243.258 22.4852 243.13 22.4211 243.097 22.2929C243.033 22.1006 242.905 21.8122 242.713 21.4277C242.617 21.2033 242.777 20.979 243.001 20.979C243.61 21.0111 244.027 21.0111 244.283 20.979C244.508 20.979 244.636 20.8829 244.636 20.6906V18.9921C244.636 18.8319 244.508 18.6717 244.315 18.6717H240.277C240.117 18.7358 239.957 18.8639 239.957 19.0242Z" fill="white"/>
<path d="M188.939 12.3906V10.7562C188.939 10.596 189.067 10.4678 189.227 10.4678H199.386C199.578 10.4678 199.706 10.628 199.674 10.8203C199.45 11.8778 199.065 13.0315 198.553 14.2493C198.008 15.5311 197.335 16.7489 196.63 17.9026C196.566 17.9987 196.566 18.1269 196.63 18.223C197.303 19.1524 197.944 19.9536 198.521 20.5945C199.13 21.2675 199.803 21.9084 200.572 22.5814C200.636 22.6455 200.668 22.7096 200.668 22.8057V24.8887C200.668 25.1451 200.379 25.2733 200.187 25.1131C199.995 24.9528 199.738 24.7606 199.45 24.5042C198.841 24.0235 198.2 23.4146 197.527 22.7096C196.886 22.0686 196.181 21.2034 195.38 20.1138C195.252 19.9536 195.028 19.9536 194.931 20.1138C193.97 21.2995 193.073 22.2289 192.304 22.9019C191.438 23.6389 190.669 24.2478 189.932 24.6965C189.419 25.0169 188.971 25.2733 188.618 25.4656C188.426 25.5617 188.202 25.4335 188.202 25.2092V23.3505C188.202 23.2544 188.266 23.1582 188.33 23.0941C189.355 22.4852 190.317 21.7482 191.246 20.8829C192.24 19.9856 193.233 18.8319 194.226 17.486C195.156 16.2362 195.957 14.73 196.598 12.9995C196.662 12.8072 196.534 12.6149 196.342 12.6149H189.227C189.067 12.679 188.939 12.5508 188.939 12.3906Z" fill="white"/>
</g>
</g>
<defs>
<linearGradient id="paint0_linear" x1="11.0395" y1="13.8401" x2="22.6705" y2="25.4712" gradientUnits="userSpaceOnUse">
<stop stop-color="white"/>
<stop offset="1" stop-color="white" stop-opacity="0"/>
</linearGradient>
<clipPath id="clip0">
<path d="M0 0H248V36H0V0Z" fill="white"/>
</clipPath>
<clipPath id="clip1">
<rect x="33" y="8" width="215.257" height="19.26" fill="white"/>
</clipPath>
</defs>
</svg>
