<svg width="24" height="24" fill="none" xmlns="http://www.w3.org/2000/svg"><path d="M19.92 7.535a4.359 4.359 0 0 0-2.645-3.216 4.385 4.385 0 0 0-3.676.18c-.38.201-.739.462-1.057.78l-2.07 2.07a1.069 1.069 0 1 0 1.512 1.513l2.07-2.071c.22-.22.47-.38.737-.49a2.246 2.246 0 0 1 1.878.092 2.235 2.235 0 0 1 .939 3.012 2.24 2.24 0 0 1-.399.541l-2.07 2.07a1.07 1.07 0 0 0 1.511 1.512l2.07-2.07c.425-.424.747-.92.96-1.446.32-.79.4-1.651.24-2.477zM12.017 15.138l-2.07 2.071a2.232 2.232 0 1 1-3.156-3.156l2.071-2.07a1.07 1.07 0 0 0-1.512-1.511l-2.07 2.07a4.361 4.361 0 0 0-1.2 3.922 4.335 4.335 0 0 0 1.2 2.256 4.375 4.375 0 0 0 6.179 0l2.07-2.07a1.07 1.07 0 0 0-1.512-1.512z" fill="#21262D"/><path d="M14.7 9.299a1.07 1.07 0 0 0-1.51 0l-3.892 3.89a1.07 1.07 0 0 0 1.512 1.512l3.89-3.89a1.067 1.067 0 0 0 0-1.512z" fill="#21262D"/></svg>