<svg width="24" height="24" fill="none" xmlns="http://www.w3.org/2000/svg"><path d="M19.667 4.222c-.223-.666-.89-1.11-1.556-1.11H5.89c-.778 0-1.333.444-1.556 1.11L2 10.89v8.889c0 .666.444 1.11 1.111 1.11h1.111c.667 0 1.111-.444 1.111-1.11v-1.111h13.334v1.11c0 .667.444 1.112 1.11 1.112h1.112c.667 0 1.111-.445 1.111-1.111v-8.89l-2.333-6.666zM5.889 15.333c-.889 0-1.667-.777-1.667-1.666C4.222 12.777 5 12 5.89 12s1.667.778 1.667 1.667-.778 1.666-1.667 1.666zm12.222 0c-.889 0-1.667-.777-1.667-1.666 0-.89.778-1.667 1.667-1.667s1.667.778 1.667 1.667-.778 1.666-1.667 1.666zM4.222 9.778l1.667-5H18.11l1.667 5H4.222z" fill="#828E9F"/></svg>