<svg width="32" height="32" viewBox="0 0 32 32" fill="none" xmlns="http://www.w3.org/2000/svg">
<path d="M13.4918 2.1333C6.9262 2.1333 1.33325 6.63198 1.33325 12.4681C1.33325 14.4135 2.06277 16.2373 3.15704 17.8179L2.6707 21.3439L2.42752 23.5324L4.3729 22.6813L7.41255 21.4655C8.87158 22.195 10.6954 22.6813 12.5192 22.8029C13.3703 26.4505 17.1394 29.0038 21.3949 29.0038C23.2187 29.0038 24.7993 28.5174 26.1368 27.7879L27.5958 28.639L29.6628 29.7333L29.4196 27.4232L29.1764 25.2346C30.0275 24.0188 30.5139 22.8029 30.5139 21.3439C30.5139 18.1826 28.4469 15.6293 25.5288 14.2919C25.6504 13.5624 25.6504 13.076 25.6504 12.4681C25.6504 6.63198 20.0575 2.1333 13.4918 2.1333ZM13.4918 4.56502C18.9632 4.56502 23.2187 8.2126 23.2187 12.4681C23.2187 12.8329 23.2187 13.076 23.0971 13.4408C22.4892 13.3192 22.0029 13.3192 21.3949 13.3192C16.7747 13.3192 12.7623 16.3589 12.276 20.3712C10.6954 20.2496 9.23633 19.7633 7.89889 19.0337L7.41255 18.669L6.9262 18.9122L5.34559 19.5201L5.58876 17.6963V17.21L5.34559 16.8452C4.3729 15.5078 3.76497 14.0487 3.76497 12.4681C3.76497 8.2126 8.02048 4.56502 13.4918 4.56502ZM9.35792 7.23991C8.38523 7.23991 7.65572 7.96942 7.65572 8.94211C7.65572 9.9148 8.38523 10.6443 9.35792 10.6443C10.3306 10.6443 11.0601 9.79321 11.0601 8.94211C11.0601 8.09101 10.209 7.23991 9.35792 7.23991ZM17.3826 7.23991C16.4099 7.23991 15.6804 7.96942 15.6804 8.94211C15.6804 9.9148 16.5315 10.6443 17.3826 10.6443C18.2337 10.6443 19.0848 9.79321 19.0848 8.94211C19.0848 8.09101 18.3553 7.23991 17.3826 7.23991ZM21.3949 15.7509C25.1641 15.7509 28.0821 18.3042 28.0821 21.1007C28.0821 22.195 27.7174 23.1677 26.9879 24.0188L26.6231 24.3835L26.7447 24.8699V25.113L26.1368 24.8699L25.5288 25.2346C24.4346 25.9641 22.9755 26.4505 21.3949 26.4505C17.6258 26.4505 14.7077 23.8972 14.7077 21.1007C14.7077 18.3042 17.6258 15.7509 21.3949 15.7509ZM18.3553 17.21C17.6258 17.21 17.0178 17.8179 17.0178 18.5474C17.0178 19.2769 17.6258 19.8848 18.3553 19.8848C19.0848 19.8848 19.6927 19.2769 19.6927 18.5474C19.6927 17.8179 19.0848 17.21 18.3553 17.21ZM24.4346 17.21C23.7051 17.21 23.0971 17.8179 23.0971 18.5474C23.0971 19.2769 23.7051 19.8848 24.4346 19.8848C25.1641 19.8848 25.772 19.2769 25.772 18.5474C25.772 17.8179 25.1641 17.21 24.4346 17.21Z" fill="#21262D"/>
</svg>
