<svg width="32" height="32" viewBox="0 0 32 32" fill="none" xmlns="http://www.w3.org/2000/svg">
<path d="M23.3095 3.6001C22.677 3.6001 21.918 3.6001 21.2856 3.72659C20.6531 3.85309 20.2736 4.48557 20.4001 5.11805C20.5266 5.75053 21.1591 6.13001 21.7915 6.00352C23.689 5.62403 25.8394 6.13001 27.2309 7.77446C28.6223 9.29241 29.0018 11.5693 28.3693 13.3403C28.1163 13.9727 28.4958 14.6052 29.1283 14.8582C29.7608 15.1112 30.3932 14.7317 30.6462 14.0992C31.5317 11.4428 31.0257 8.40694 29.0018 6.25651C27.4838 4.61206 25.4599 3.72659 23.3095 3.6001ZM12.9368 7.14198C10.7864 7.26847 7.75051 8.91292 5.22059 11.5693C2.31119 14.4787 0.666748 17.5146 0.666748 20.171C0.666748 25.2309 7.11803 28.2668 13.4428 28.2668C21.665 28.2668 27.2309 23.4599 27.2309 19.6651C27.2309 17.3881 25.3334 15.9967 23.5625 15.4907C23.183 15.3642 22.8035 15.3642 23.0565 14.7317C23.5625 13.4668 23.5625 12.4548 23.0565 11.6958C22.0445 10.3044 19.3881 10.3044 16.2257 11.6958C16.2257 11.6958 15.2138 12.2018 15.4667 11.4428C15.9727 9.92488 15.8462 8.65993 15.0873 7.90095C14.5813 7.14198 13.8223 7.01548 12.9368 7.14198ZM23.183 7.77446C22.8035 7.77446 22.5505 7.77446 22.171 7.90095C21.665 8.02745 21.2856 8.53343 21.412 9.16591C21.5385 9.67189 22.0445 10.0514 22.5505 9.92488C23.183 9.79839 23.942 10.0514 24.4479 10.5574C24.9539 11.0633 25.0804 11.8223 24.8274 12.4548C24.7009 12.9608 24.9539 13.5933 25.4599 13.7198C25.9659 13.8463 26.5984 13.5933 26.7249 13.0873C27.1044 11.8223 26.8514 10.3044 25.8394 9.29241C25.2069 8.28044 24.195 7.77446 23.183 7.77446ZM14.0753 14.3522C18.2497 14.4787 21.665 16.6292 21.918 19.5386C22.2975 22.8274 18.5026 25.8633 13.4428 26.3693C8.38299 26.8753 4.08213 24.5984 3.70265 21.3095C3.32316 18.0206 7.24453 14.9847 12.3044 14.4787C12.9368 14.3522 13.4428 14.3522 14.0753 14.3522ZM12.0514 16.8821C10.2804 17.0086 8.50948 18.1471 7.75051 19.6651C6.73854 21.8155 7.75051 24.2189 10.1539 24.9779C12.6838 25.7369 15.5932 24.4719 16.6052 22.195C17.6172 19.918 16.3522 17.6411 13.8223 17.0086C13.3163 16.8821 12.6838 16.7557 12.0514 16.8821ZM13.1898 19.6651C13.3163 19.6651 13.3163 19.6651 13.4428 19.6651C13.6958 19.7916 13.9488 20.171 13.6958 20.424C13.5693 20.677 13.1898 20.8035 12.8103 20.677C12.5573 20.5505 12.4309 20.171 12.5573 19.918C12.6838 19.7916 13.0633 19.6651 13.1898 19.6651ZM10.9129 20.2975C11.1659 20.2975 11.2924 20.2975 11.5454 20.424C12.3044 20.8035 12.5573 21.689 12.0514 22.448C11.5454 23.2069 10.5334 23.5864 9.77444 23.2069C9.01547 22.8274 8.76248 21.942 9.26846 21.183C9.64795 20.677 10.2804 20.2975 10.9129 20.2975Z" fill="#21262D"/>
</svg>
